<svg width="91" height="91" viewBox="0 0 91 91" fill="none" xmlns="http://www.w3.org/2000/svg">
<rect x="3.15972" y="3.15972" width="84.6806" height="84.6806" rx="42.3403" fill="#1E3228"/>
<path d="M29.6372 57.5V35.9349H29.415L21.2541 39.0749V41.578L26.8971 39.4303V57.5H29.6372ZM52.5057 49.2502V44.1995C52.5057 42.827 52.3477 41.6125 52.0317 40.556C51.7158 39.4896 51.2616 38.591 50.6691 37.8604C50.0668 37.1297 49.3312 36.5767 48.4622 36.2015C47.6032 35.8164 46.6207 35.6239 45.5148 35.6239C44.4188 35.6239 43.4363 35.8164 42.5674 36.2015C41.7083 36.5767 40.9826 37.1297 40.3901 37.8604C39.7878 38.591 39.3287 39.4896 39.0127 40.556C38.6967 41.6125 38.5387 42.827 38.5387 44.1995V49.2502C38.5387 50.6227 38.6967 51.8421 39.0127 52.9085C39.3287 53.9651 39.7878 54.8537 40.3901 55.5745C40.9925 56.3151 41.7281 56.873 42.597 57.2482C43.4659 57.6136 44.4484 57.7962 45.5444 57.7962C46.6503 57.7962 47.6328 57.6086 48.4919 57.2334C49.3509 56.8582 50.0767 56.3052 50.6691 55.5745C51.2616 54.8537 51.7158 53.9651 52.0317 52.9085C52.3477 51.8421 52.5057 50.6227 52.5057 49.2502ZM41.2936 48.7021C41.2936 48.4454 41.2936 48.1936 41.2936 47.9468C41.2936 47.6999 41.2936 47.4531 41.2936 47.2062V43.5923C41.2936 42.5851 41.3924 41.7014 41.5898 40.9411C41.7972 40.1709 42.1082 39.5439 42.5229 39.0601C42.8685 38.675 43.2882 38.3837 43.7819 38.1862C44.2855 37.9788 44.8631 37.8752 45.5148 37.8752C46.1566 37.8752 46.7195 37.969 47.2033 38.1566C47.697 38.3442 48.1117 38.6256 48.4474 39.0008C48.793 39.3662 49.0646 39.8253 49.262 40.3783C49.4694 40.9213 49.6126 41.5483 49.6916 42.2593L41.2936 48.7021ZM49.7508 49.8278C49.7508 50.8843 49.6422 51.8026 49.425 52.5827C49.2176 53.3627 48.8868 53.9947 48.4326 54.4785C48.0969 54.834 47.6871 55.1055 47.2033 55.2931C46.7195 55.4807 46.1665 55.5745 45.5444 55.5745C44.952 55.5745 44.4188 55.4906 43.9448 55.3228C43.4709 55.145 43.066 54.8883 42.7303 54.5526C42.365 54.1971 42.0687 53.7478 41.8416 53.2048C41.6145 52.6518 41.4565 52.0149 41.3677 51.2941L49.7508 44.8809C49.7508 45.1573 49.7508 45.5079 49.7508 45.9325C49.7508 46.3472 49.7508 46.6286 49.7508 46.7767V49.8278ZM70.7235 49.2502V44.1995C70.7235 42.827 70.5655 41.6125 70.2495 40.556C69.9335 39.4896 69.4793 38.591 68.8869 37.8604C68.2846 37.1297 67.5489 36.5767 66.68 36.2015C65.821 35.8164 64.8385 35.6239 63.7326 35.6239C62.6366 35.6239 61.6541 35.8164 60.7852 36.2015C59.9261 36.5767 59.2004 37.1297 58.6079 37.8604C58.0056 38.591 57.5464 39.4896 57.2305 40.556C56.9145 41.6125 56.7565 42.827 56.7565 44.1995V49.2502C56.7565 50.6227 56.9145 51.8421 57.2305 52.9085C57.5464 53.9651 58.0056 54.8537 58.6079 55.5745C59.2102 56.3151 59.9459 56.873 60.8148 57.2482C61.6837 57.6136 62.6662 57.7962 63.7622 57.7962C64.8681 57.7962 65.8506 57.6086 66.7096 57.2334C67.5687 56.8582 68.2944 56.3052 68.8869 55.5745C69.4793 54.8537 69.9335 53.9651 70.2495 52.9085C70.5655 51.8421 70.7235 50.6227 70.7235 49.2502ZM59.5114 48.7021C59.5114 48.4454 59.5114 48.1936 59.5114 47.9468C59.5114 47.6999 59.5114 47.4531 59.5114 47.2062V43.5923C59.5114 42.5851 59.6101 41.7014 59.8076 40.9411C60.015 40.1709 60.326 39.5439 60.7407 39.0601C61.0863 38.675 61.506 38.3837 61.9997 38.1862C62.5033 37.9788 63.0809 37.8752 63.7326 37.8752C64.3744 37.8752 64.9372 37.969 65.4211 38.1566C65.9148 38.3442 66.3295 38.6256 66.6652 39.0008C67.0108 39.3662 67.2823 39.8253 67.4798 40.3783C67.6872 40.9213 67.8303 41.5483 67.9093 42.2593L59.5114 48.7021ZM67.9686 49.8278C67.9686 50.8843 67.86 51.8026 67.6427 52.5827C67.4354 53.3627 67.1046 53.9947 66.6504 54.4785C66.3147 54.834 65.9049 55.1055 65.4211 55.2931C64.9372 55.4807 64.3843 55.5745 63.7622 55.5745C63.1698 55.5745 62.6366 55.4906 62.1626 55.3228C61.6886 55.145 61.2838 54.8883 60.9481 54.5526C60.5827 54.1971 60.2865 53.7478 60.0594 53.2048C59.8323 52.6518 59.6743 52.0149 59.5854 51.2941L67.9686 44.8809C67.9686 45.1573 67.9686 45.5079 67.9686 45.9325C67.9686 46.3472 67.9686 46.6286 67.9686 46.7767V49.8278Z" fill="#00CC66"/>
<rect x="3.15972" y="3.15972" width="84.6806" height="84.6806" rx="42.3403" stroke="#00CC66" stroke-width="6.31944"/>
</svg>
